<?xml version="1.0" standalone="no"?>
<!DOCTYPE svg PUBLIC "-//W3C//DTD SVG 20010904//EN"
 "http://www.w3.org/TR/2001/REC-SVG-20010904/DTD/svg10.dtd">
<svg version="1.0" xmlns="http://www.w3.org/2000/svg"
 width="384.000000pt" height="384.000000pt" viewBox="0 0 384.000000 384.000000"
 preserveAspectRatio="xMidYMid meet">

<g transform="translate(0.000000,384.000000) scale(0.100000,-0.100000)"
fill="#000000" stroke="none">
<path d="M925 3364 l-30 -97 -65 -36 -65 -37 -3 -90 -3 -91 41 -18 c38 -17 89
-18 1097 -11 684 5 1070 11 1091 17 l33 11 -3 91 -3 92 -65 35 -65 35 -31 95
-30 95 -935 2 -934 3 -30 -96z"/>
<path d="M1668 2913 c-612 -3 -778 -6 -778 -16 0 -6 56 -342 125 -746 78 -460
129 -740 138 -748 37 -37 340 -64 727 -65 157 0 293 -2 303 -5 20 -5 23 -36 5
-51 -13 -9 -30 -14 -110 -27 -21 -3 -38 -10 -38 -15 0 -6 65 -10 159 -10 132
0 161 -3 172 -16 9 -11 10 -20 2 -32 -8 -13 -38 -20 -124 -29 -63 -6 -122 -12
-131 -12 -10 -1 -18 -8 -18 -16 0 -13 21 -15 129 -15 71 0 136 -3 145 -6 22
-8 21 -51 -1 -58 -10 -3 -73 -8 -140 -12 -86 -5 -123 -10 -123 -19 0 -8 36
-14 122 -18 127 -6 151 -16 122 -48 -12 -13 -41 -19 -125 -24 -60 -4 -109 -11
-109 -15 0 -11 38 -20 83 -20 40 0 77 -14 77 -29 0 -50 -641 -54 -939 -6 -52
9 -96 13 -99 10 -3 -3 11 -103 31 -223 43 -253 39 -247 170 -287 235 -72 619
-85 872 -28 65 14 215 75 215 87 0 3 50 334 110 736 61 403 110 745 110 762 0
23 -4 28 -17 24 -116 -36 -371 -57 -773 -63 -374 -6 -510 2 -526 29 -12 19 25
35 96 42 39 4 70 11 70 16 0 10 -42 16 -165 25 -58 4 -83 10 -93 23 -30 39 2
50 156 51 90 1 112 4 112 15 0 15 -17 17 -205 31 -90 7 -114 20 -96 54 11 20
19 21 162 21 137 0 150 2 147 17 -3 15 -26 20 -142 33 -108 12 -141 19 -149
32 -8 12 -7 21 2 32 11 13 40 16 182 16 137 0 169 3 169 14 0 16 -30 26 -78
26 -40 0 -92 25 -92 44 0 36 24 39 273 34 295 -6 644 6 792 27 117 16 249 51
264 69 12 15 64 364 57 382 -4 12 -44 14 -228 12 -123 -2 -573 -4 -1000 -5z"/>
</g>
</svg>
