<svg height="512" viewBox="0 0 50 58" width="512" xmlns="http://www.w3.org/2000/svg"><g fill="none"><path d="M48 4v3H2V4a4 4 0 014-4h38a4 4 0 014 4z" fill="#e64c3c"/><path d="M6 17h38v36H6z" fill="#464f5d"/><path d="M34 46a1 1 0 010-2c3.623 0 4.292-1.419 4.964-3.756a.908.908 0 00-.157-.806A1.12 1.12 0 0037.9 39H34a1 1 0 010-2h3.9c.98 0 1.905.456 2.5 1.235a2.9 2.9 0 01.482 2.562C40.1 43.539 38.978 46 34 46z" fill="#bdc3c7"/><path d="M50 52v3a3 3 0 01-3 3H3a3 3 0 01-3-3v-3a1 1 0 011-1h48a1 1 0 011 1z" fill="#e64c3c"/><path d="M48 5v13a1 1 0 01-1 1H3a1 1 0 01-1-1V5z" fill="#bdc3c7"/><path d="M36 19l-1.89 3.79A4.02 4.02 0 0130.53 25H19.47a4.02 4.02 0 01-3.58-2.21L14 19z" fill="#7f8c8d"/><path d="M30 25l-2.74 6.39a1 1 0 01-.92.61h-2.68a1 1 0 01-.92-.61L20 25z" fill="#95a5a5"/><rect fill="#81ccb8" height="6" rx="1" width="14" x="18" y="9"/><path d="M38 10h-1a1 1 0 010-2h1a1 1 0 010 2zm5 0h-1a1 1 0 010-2h1a1 1 0 010 2zm-5 3h-1a1 1 0 010-2h1a1 1 0 010 2zm5 0h-1a1 1 0 010-2h1a1 1 0 010 2zm-5 3h-1a1 1 0 010-2h1a1 1 0 010 2zm5 0h-1a1 1 0 010-2h1a1 1 0 010 2z" fill="#7f8284"/><path d="M34 37v8a6 6 0 01-6 6h-6a6 6 0 01-6-6v-8a1 1 0 011-1h16a1 1 0 011 1z" fill="#ecf0f1"/><path d="M21 41a1 1 0 01-1 1h-4v-2h4a1 1 0 011 1zm13-1v2H24a1 1 0 010-2z" fill="#bdc3c7"/><path d="M31 16H19a2 2 0 01-2-2v-4a2 2 0 012-2h12a2 2 0 012 2v4a2 2 0 01-2 2zm-12-6v4h12v-4z" fill="#7f8284"/><path d="M10 17a5 5 0 110-10 5 5 0 010 10zm0-7.5a2.5 2.5 0 100 5 2.5 2.5 0 000-5z" fill="#464f5d"/><circle cx="10" cy="12" fill="#ecf0f1" r="3"/></g></svg>